<svg xmlns="http://www.w3.org/2000/svg" width="300" height="600" viewBox="0 0 300 600">
  <!-- Phone frame -->
  <rect x="0" y="0" width="300" height="600" rx="30" ry="30" fill="#f5f5f7" />
  <rect x="10" y="10" width="280" height="580" rx="25" ry="25" fill="white" />
  
  <!-- Status bar -->
  <rect x="20" y="20" width="260" height="30" fill="#f8f8f8" />
  <circle cx="240" cy="35" r="4" fill="#007aff" />
  <circle cx="250" cy="35" r="4" fill="#007aff" />
  <circle cx="260" cy="35" r="4" fill="#007aff" />
  <rect x="150" y="30" width="50" height="10" rx="5" ry="5" fill="#dddddd" />
  
  <!-- Header -->
  <rect x="20" y="60" width="260" height="50" fill="white" />
  <rect x="110" y="70" width="80" height="15" rx="2" ry="2" fill="#007aff" />
  <rect x="110" y="90" width="80" height="10" rx="2" ry="2" fill="#eaeaea" />
  
  <!-- Barcode list -->
  <rect x="20" y="120" width="260" height="80" rx="10" ry="10" fill="#f7f7f7" />
  <rect x="30" y="135" width="160" height="15" rx="2" ry="2" fill="#333333" />
  <rect x="30" y="155" width="120" height="10" rx="2" ry="2" fill="#999999" />
  <rect x="240" y="145" width="30" height="30" rx="15" ry="15" fill="#dddddd" />
  
  <rect x="20" y="210" width="260" height="80" rx="10" ry="10" fill="#f7f7f7" />
  <rect x="30" y="225" width="160" height="15" rx="2" ry="2" fill="#333333" />
  <rect x="30" y="245" width="120" height="10" rx="2" ry="2" fill="#999999" />
  <rect x="240" y="235" width="30" height="30" rx="15" ry="15" fill="#dddddd" />
  
  <rect x="20" y="300" width="260" height="80" rx="10" ry="10" fill="#f7f7f7" />
  <rect x="30" y="315" width="160" height="15" rx="2" ry="2" fill="#333333" />
  <rect x="30" y="335" width="120" height="10" rx="2" ry="2" fill="#999999" />
  <rect x="240" y="325" width="30" height="30" rx="15" ry="15" fill="#dddddd" />
  
  <rect x="20" y="390" width="260" height="80" rx="10" ry="10" fill="#f7f7f7" />
  <rect x="30" y="405" width="160" height="15" rx="2" ry="2" fill="#333333" />
  <rect x="30" y="425" width="120" height="10" rx="2" ry="2" fill="#999999" />
  <rect x="240" y="415" width="30" height="30" rx="15" ry="15" fill="#dddddd" />
  
  <rect x="20" y="480" width="260" height="80" rx="10" ry="10" fill="#f7f7f7" />
  <rect x="30" y="495" width="160" height="15" rx="2" ry="2" fill="#333333" />
  <rect x="30" y="515" width="120" height="10" rx="2" ry="2" fill="#999999" />
  <rect x="240" y="505" width="30" height="30" rx="15" ry="15" fill="#dddddd" />
  
  <!-- Bottom navigation bar -->
  <rect x="20" y="570" width="260" height="15" fill="#f8f8f8" />
  <circle cx="75" cy="577" r="8" fill="#dddddd" />
  <circle cx="150" cy="577" r="8" fill="#007aff" />
  <circle cx="225" cy="577" r="8" fill="#dddddd" />
</svg> 